{"title":"Chanel Preston - Lovephoria Laws of Attraction -=NEW EXCLUSiVE","uid":11810089,"size":472225656,"categoryP":"porn","categoryS":"movies","magnet":"?xt=urn:btih:aaee6a327b630ae180fc32c910b7500e23b640ca&amp;dn=Chanel+Preston+-+Lovephoria+Laws+of+Attraction+-%3DNEW+EXCLUSiVE&amp;tr=udp%3A%2F%2Ftracker.openbittorrent.com%3A80&amp;tr=udp%3A%2F%2Fopen.demonii.com%3A1337&amp;tr=udp%3A%2F%2Ftracker.coppersurfer.tk%3A6969&amp;tr=udp%3A%2F%2Fexodus.desync.com%3A6969","seeders":1,"leechers":2,"uploader":"imgbabes","files":1,"time":1428739678,"description":"[center][size=200][color=green]\n\nVideo\nID                                       : 0\nFormat                                   : MPEG-4 Visual\nFormat profile                           : Simple@L1\nFormat settings, BVOP                    : No\nFormat settings, QPel                    : No\nFormat settings, GMC                     : No warppoints\nFormat settings, Matrix                  : Default (H.263)\nCodec ID                                 : DX50\nCodec ID/Hint                            : DivX 5\nDuration                                 : 19mn 0s\nBit rate                                 : 3 045 Kbps\nWidth                                    : 720 pixels\nHeight                                   : 406 pixels\nDisplay aspect ratio                     : 16:9\nFrame rate                               : 29.970 fps\nColor space                              : YUV\nChroma subsampling                       : 4:2:0\nBit depth                                : 8 bits\nScan type                                : Interlaced\nScan order                               : Top Field First\nCompression mode                         : Lossy\nBits/(Pixel*Frame)                       : 0.348\nStream size                              : 414 MiB (92%)\nWriting library                          : Lavc52.72.2\n\nAudio\nID                                       : 1\nFormat                                   : MPEG Audio\nFormat version                           : Version 1\nFormat profile                           : Layer 3\nMode                                     : Joint stereo\nMode extension                           : MS Stereo\nCodec ID                                 : 55\nCodec ID/Hint                            : MP3\nDuration                                 : 19mn 0s\nBit rate mode                            : Constant\nBit rate                                 : 256 Kbps\nChannel(s)                               : 2 channels\nSampling rate                            : 44.1 KHz\nCompression mode                         : Lossy\nStream size                              : 34.8 MiB (8%)\nAlignment                                : Aligned on interleaves\nInterleave, duration                     : 26 ms (0.78 video frame)\nInterleave, preload duration             : 809 ms\nWriting library                          : LAME\n\n[/color][/size][/center]","torrent":{"xt":"urn:btih:aaee6a327b630ae180fc32c910b7500e23b640ca","amp;dn":"Chanel+Preston+-+Lovephoria+Laws+of+Attraction+-%3DNEW+EXCLUSiVE","amp;tr":["udp%3A%2F%2Ftracker.openbittorrent.com%3A80","udp%3A%2F%2Fopen.demonii.com%3A1337","udp%3A%2F%2Ftracker.coppersurfer.tk%3A6969","udp%3A%2F%2Fexodus.desync.com%3A6969"],"infoHash":"aaee6a327b630ae180fc32c910b7500e23b640ca","infoHashBuffer":{"type":"Buffer","data":[170,238,106,50,123,99,10,225,128,252,50,201,16,183,80,14,35,182,64,202]},"announce":[],"urlList":[]}}